<svg width="17" height="88" fill="none" xmlns="http://www.w3.org/2000/svg"><path d="M7.646 87.354a.5.5 0 00.708 0l3.182-3.182a.5.5 0 10-.708-.707L8 86.293l-2.828-2.829a.5.5 0 10-.708.708l3.182 3.182zM7.5 37v50h1V37h-1zM8.412.557c.524 0 .951.21 1.283.632.336.426.504.973.504 1.641 0 .629-.168 1.152-.504 1.57-.336.418-.761.64-1.277.662V4.09a.964.964 0 00.697-.399c.168-.226.252-.525.252-.896s-.084-.67-.252-.897a.766.766 0 00-.65-.34c-.414 0-.707.338-.88 1.014l-.228.944c-.156.613-.359 1.045-.609 1.295-.246.253-.594.38-1.043.38-.531 0-.967-.226-1.307-.68-.335-.452-.503-1.034-.503-1.745 0-.664.164-1.213.492-1.647.332-.43.77-.672 1.312-.726v1.02c-.648.112-.972.585-.972 1.417 0 .41.08.734.24.973a.762.762 0 00.662.363.664.664 0 00.521-.217c.13-.14.239-.38.329-.72l.275-1.073c.273-1.066.826-1.6 1.658-1.6zm-.316 11.758v-.997c.351-.078.64-.252.867-.521.226-.266.34-.612.34-1.037 0-.531-.205-.96-.616-1.283-.406-.325-.953-.487-1.64-.487-.7 0-1.25.162-1.652.487-.403.328-.604.76-.604 1.294 0 .41.102.748.305 1.014.207.27.496.45.867.54v1.001a2.23 2.23 0 01-1.494-.826c-.383-.469-.574-1.047-.574-1.734 0-.852.28-1.534.843-2.045.567-.512 1.336-.768 2.309-.768.957 0 1.72.256 2.29.768.575.511.862 1.19.862 2.033 0 .726-.205 1.316-.615 1.77-.41.457-.906.72-1.488.79zM4 14.264h6.094v.96h-.996v.024c.34.102.607.283.802.545.2.266.3.576.3.932 0 .082-.014.218-.042.41h-.99c.039-.11.059-.291.059-.545 0-.395-.131-.711-.393-.95-.262-.238-.607-.357-1.037-.357H4v-1.02zm-.105 6.935c0-.851.283-1.535.85-2.05.57-.516 1.337-.774 2.302-.774.965 0 1.73.258 2.297.773.57.516.855 1.2.855 2.051 0 .848-.285 1.53-.855 2.045-.567.516-1.332.774-2.297.774-.961 0-1.727-.258-2.297-.774-.57-.515-.855-1.197-.855-2.045zm1.494-1.306c-.399.324-.598.76-.598 1.306 0 .547.197.98.592 1.301.398.32.953.48 1.664.48.71 0 1.264-.16 1.658-.48.399-.32.598-.754.598-1.3 0-.548-.2-.983-.598-1.307-.398-.32-.951-.48-1.658-.48s-1.26.16-1.658.48zM4 26.102h8.455v1.02H4v-1.02zm0 3.449h8.455v1.02H4v-1.02z" fill="#fff"/></svg>